<svg width="1000" height="250" viewBox="0 0 1000 250" version="1.1" xmlns="http://www.w3.org/2000/svg">

    <rect width="100%" height="100%" style="fill:#fff;stroke-width:0;stroke:rgb(255,0,0)"/>

    <!--
    <path d="M20 20 L110 20 L110 30 L30 30 L30 60 L110 60 L110 70 L30 70 L30 100 L110 100 L110 110 L20 110 Z"
          style="fill:white;stroke:red;stroke-width:0"/>
-->
    <!--
    <path d="M600,200 C10,-50 40,700 600,500" fill="none" stroke="red"  />

    <text x="8%" y="60%" fill="#405DFF" style="font-size: 500px;font-family: '华文彩云'; stroke: #FFE46F;">eco</text>
    -->

    <text x="8%" y="85%" fill="#405DFF" style="font-size: 300px;font-family: '华文彩云'; color: #FFE46F; stroke: #FFE46F;letter-spacing: 25px;">eco</text>
    <text xmlns="http://www.w3.org/2000/svg" x="4.9%" y="-270%" fill="#405DFF" style="font-size: 300px;font-family: '华文彩云';color: #FFE46F;stroke: #FFE46F;letter-spacing: -12px;transform: rotate(90deg);">8</text>
    <!--
    <g id="E-letter">
        <line class="E-left-stroke" x1="138" y1="0" x2="138" y2="124" stroke="#000" fill="none" stroke-width="34"/>
        <line class="E-top-stroke" x1="154" y1="17" x2="201" y2="17" stroke="#000" fill="none" stroke-width="34"/>
        <line class="E-mid-stroke" x1="154" y1="62" x2="196" y2="62" stroke="#000" fill="none" stroke-width="34"/>
        <line class="E-bottom-stroke" x1="154" y1="107" x2="201" y2="107" stroke="#000" fill="none" stroke-width="34"/>
    </g>
    -->
    <!--


        <path d="M40 40 L130 40 L130 130 L40 130 L40 120 L120 120 L120 90 L40 90 L40 80 L120 80 L120 50 L40 50 Z"
              style="fill:white;stroke:red;stroke-width:0"/>
     -->
</svg>